<svg width="235" height="59" viewBox="0 0 235 59" fill="none" xmlns="http://www.w3.org/2000/svg">
<path d="M50.0938 14.4062C50.0938 15.6562 49.875 16.9375 49.4375 18.25C47.875 22.625 44.2812 25.7188 38.6562 27.5312C40.1562 27.7188 41.5938 28 42.9688 28.375C50.5312 30.375 54.3125 34.8438 54.3125 41.7812C54.3125 44.9062 53.375 47.7812 51.5 50.4062C47.6875 55.4688 41.5 58 32.9375 58H0.875V55.4688H8.375V4.28125H0.875V1.75H31.25C34.6875 1.75 37.75 2.125 40.4375 2.875C46.875 4.75 50.0938 8.59375 50.0938 14.4062ZM26 4.28125H21.5V26.2188H26.75C27.875 26.2188 28.9375 26.0938 29.9375 25.8438C34.3125 24.5938 36.5 21.0312 36.5 15.1562C36.4375 8.03125 32.9375 4.40625 26 4.28125ZM29.1875 28.8438H21.5V55.4688H27.7812C28.5938 55.4688 29.4062 55.4062 30.2188 55.2812C36.7188 54.3438 39.9688 49.625 39.9688 41.125C39.9688 39.25 39.6875 37.5 39.125 35.875C37.5 31.1875 34.1875 28.8438 29.1875 28.8438ZM104.469 58H58.5312V55.4688H66.0312V4.28125H58.5312V1.75H87.125V4.28125H79.1562V55.4688H88.8125C90.6875 55.4688 92.3438 55.1562 93.7812 54.5312C96.2188 53.3438 98.0938 50.6562 99.4062 46.4688L102.125 37.6562H104.844L104.469 58ZM138.125 0.8125C145.188 0.8125 151.344 2.71875 156.594 6.53125C163.906 11.9062 167.562 19.75 167.562 30.0625C167.562 38.5625 164.656 45.5625 158.844 51.0625C153.156 56.3125 146.156 58.9375 137.844 58.9375C130.531 58.9375 124.156 56.8438 118.719 52.6562C111.656 47.1562 108.125 39.5 108.125 29.6875C108.125 21.125 111.094 14.125 117.031 8.6875C122.781 3.4375 129.812 0.8125 138.125 0.8125ZM138.125 56.2188C141 56.2188 143.406 55.5938 145.344 54.3438C150.344 51.1562 152.844 42.9062 152.844 29.5938C152.844 23.9688 152.375 19.25 151.438 15.4375C149.438 7.5 144.906 3.53125 137.844 3.53125C135.719 3.53125 133.812 3.90625 132.125 4.65625C125.938 7.28125 122.844 15.75 122.844 30.0625C122.844 37.5625 123.625 43.375 125.188 47.5C127.438 53.3125 131.75 56.2188 138.125 56.2188ZM207.125 32.125H234.125V34.6562H228.031V58L216.688 56.0312C212.562 57.9062 208 58.8438 203 58.8438C196.688 58.8438 191.094 57.3125 186.219 54.25C178.156 49.0625 174.125 40.875 174.125 29.6875C174.125 21 176.688 14.0312 181.812 8.78125C187.188 3.46875 194.156 0.8125 202.719 0.8125C207.469 0.8125 212 1.71875 216.312 3.53125L225.125 1.75L225.5 21.625H222.594C222.594 21.5625 222.594 21.5 222.594 21.4375C220.219 9.625 214.562 3.71875 205.625 3.71875C204.875 3.71875 204.125 3.75 203.375 3.8125C193.562 4.875 188.656 13.625 188.656 30.0625C188.656 35.5625 189.156 40.1875 190.156 43.9375C192.344 51.9375 197.25 55.9375 204.875 55.9375C208.812 55.9375 212.219 54.8125 215.094 52.5625V34.6562H207.125V32.125Z" fill="white"/>
</svg>
