<svg width="212" height="134" viewBox="0 0 212 134" fill="none" xmlns="http://www.w3.org/2000/svg">
<path d="M32.789 29H30.719V21.341H22.301V29H20.231V12.578H22.301V19.524H30.719V12.578H32.789V29ZM41.6719 16.465C43.1745 16.465 44.2862 16.7947 45.0069 17.454C45.7275 18.1133 46.0879 19.1637 46.0879 20.605V29H44.6159L44.2249 27.252H44.1329C43.7802 27.6967 43.4122 28.0723 43.0289 28.379C42.6609 28.6703 42.2315 28.885 41.7409 29.023C41.2655 29.161 40.6829 29.23 39.9929 29.23C39.2569 29.23 38.5899 29.0997 37.9919 28.839C37.4092 28.5783 36.9492 28.1797 36.6119 27.643C36.2745 27.091 36.1059 26.401 36.1059 25.573C36.1059 24.3463 36.5889 23.4033 37.5549 22.744C38.5209 22.0693 40.0082 21.7013 42.0169 21.64L44.1099 21.571V20.835C44.1099 19.8077 43.8875 19.0947 43.4429 18.696C42.9982 18.2973 42.3695 18.098 41.5569 18.098C40.9129 18.098 40.2995 18.1977 39.7169 18.397C39.1342 18.581 38.5899 18.7957 38.0839 19.041L37.4629 17.523C37.9995 17.2317 38.6359 16.9863 39.3719 16.787C40.1079 16.5723 40.8745 16.465 41.6719 16.465ZM42.2699 23.043C40.7365 23.1043 39.6709 23.3497 39.0729 23.779C38.4902 24.2083 38.1989 24.814 38.1989 25.596C38.1989 26.286 38.4059 26.792 38.8199 27.114C39.2492 27.436 39.7935 27.597 40.4529 27.597C41.4955 27.597 42.3619 27.3133 43.0519 26.746C43.7419 26.1633 44.0869 25.274 44.0869 24.078V22.974L42.2699 23.043ZM66.6164 16.672V29H49.8954V16.672H51.9194V27.298H57.2324V16.672H59.2564V27.298H64.5924V16.672H66.6164ZM72.4685 24.193C72.4685 24.331 72.4608 24.5303 72.4455 24.791C72.4455 25.0363 72.4378 25.3047 72.4225 25.596C72.4072 25.872 72.3918 26.1403 72.3765 26.401C72.3612 26.6463 72.3458 26.8457 72.3305 26.999L78.9315 16.672H81.4155V29H79.5295V21.732C79.5295 21.4867 79.5295 21.1647 79.5295 20.766C79.5448 20.3673 79.5602 19.9763 79.5755 19.593C79.5908 19.1943 79.6062 18.8953 79.6215 18.696L73.0665 29H70.5595V16.672H72.4685V24.193ZM106.112 16.672V29H104.088V18.397H97.7173V29H95.6933V16.672H106.112ZM114.715 16.465C116.217 16.465 117.329 16.7947 118.05 17.454C118.77 18.1133 119.131 19.1637 119.131 20.605V29H117.659L117.268 27.252H117.176C116.823 27.6967 116.455 28.0723 116.072 28.379C115.704 28.6703 115.274 28.885 114.784 29.023C114.308 29.161 113.726 29.23 113.036 29.23C112.3 29.23 111.633 29.0997 111.035 28.839C110.452 28.5783 109.992 28.1797 109.655 27.643C109.317 27.091 109.149 26.401 109.149 25.573C109.149 24.3463 109.632 23.4033 110.598 22.744C111.564 22.0693 113.051 21.7013 115.06 21.64L117.153 21.571V20.835C117.153 19.8077 116.93 19.0947 116.486 18.696C116.041 18.2973 115.412 18.098 114.6 18.098C113.956 18.098 113.342 18.1977 112.76 18.397C112.177 18.581 111.633 18.7957 111.127 19.041L110.506 17.523C111.042 17.2317 111.679 16.9863 112.415 16.787C113.151 16.5723 113.917 16.465 114.715 16.465ZM115.313 23.043C113.779 23.1043 112.714 23.3497 112.116 23.779C111.533 24.2083 111.242 24.814 111.242 25.596C111.242 26.286 111.449 26.792 111.863 27.114C112.292 27.436 112.836 27.597 113.496 27.597C114.538 27.597 115.405 27.3133 116.095 26.746C116.785 26.1633 117.13 25.274 117.13 24.078V22.974L115.313 23.043ZM128.803 16.442C130.321 16.442 131.54 16.971 132.46 18.029C133.396 19.087 133.863 20.6817 133.863 22.813C133.863 24.2083 133.649 25.389 133.219 26.355C132.805 27.3057 132.215 28.0263 131.448 28.517C130.697 28.9923 129.808 29.23 128.78 29.23C128.152 29.23 127.592 29.1457 127.101 28.977C126.611 28.8083 126.189 28.5937 125.836 28.333C125.499 28.057 125.208 27.758 124.962 27.436H124.824C124.855 27.6967 124.886 28.0263 124.916 28.425C124.947 28.8237 124.962 29.1687 124.962 29.46V34.52H122.938V16.672H124.594L124.87 18.351H124.962C125.208 17.9983 125.499 17.6763 125.836 17.385C126.189 17.0937 126.603 16.8637 127.078 16.695C127.569 16.5263 128.144 16.442 128.803 16.442ZM128.435 18.144C127.607 18.144 126.94 18.305 126.434 18.627C125.928 18.9337 125.56 19.4013 125.33 20.03C125.1 20.6587 124.978 21.456 124.962 22.422V22.813C124.962 23.825 125.07 24.6837 125.284 25.389C125.499 26.0943 125.859 26.631 126.365 26.999C126.887 27.367 127.592 27.551 128.481 27.551C129.233 27.551 129.846 27.344 130.321 26.93C130.812 26.516 131.172 25.9563 131.402 25.251C131.648 24.5303 131.77 23.71 131.77 22.79C131.77 21.3793 131.494 20.2523 130.942 19.409C130.406 18.5657 129.57 18.144 128.435 18.144ZM145.374 18.374H141.349V29H139.348V18.374H135.369V16.672H145.374V18.374ZM149.827 16.672V21.801H156.52V16.672H158.544V29H156.52V23.503H149.827V29H147.803V16.672H149.827ZM167.208 16.442C168.266 16.442 169.171 16.672 169.922 17.132C170.689 17.592 171.272 18.2437 171.67 19.087C172.084 19.915 172.291 20.8887 172.291 22.008V23.227H163.85C163.881 24.6223 164.234 25.688 164.908 26.424C165.598 27.1447 166.557 27.505 167.783 27.505C168.565 27.505 169.255 27.436 169.853 27.298C170.467 27.1447 171.095 26.93 171.739 26.654V28.425C171.111 28.701 170.49 28.9003 169.876 29.023C169.263 29.161 168.535 29.23 167.691 29.23C166.526 29.23 165.491 28.9923 164.586 28.517C163.697 28.0417 162.999 27.3363 162.493 26.401C162.003 25.4503 161.757 24.2927 161.757 22.928C161.757 21.5787 161.98 20.421 162.424 19.455C162.884 18.489 163.521 17.7453 164.333 17.224C165.161 16.7027 166.12 16.442 167.208 16.442ZM167.185 18.098C166.219 18.098 165.453 18.4123 164.885 19.041C164.333 19.6543 164.004 20.513 163.896 21.617H170.175C170.175 20.9117 170.068 20.2983 169.853 19.777C169.639 19.2557 169.309 18.8493 168.864 18.558C168.435 18.2513 167.875 18.098 167.185 18.098ZM163.804 13.337C163.804 12.9383 163.912 12.6547 164.126 12.486C164.341 12.302 164.594 12.21 164.885 12.21C165.177 12.21 165.43 12.302 165.644 12.486C165.859 12.6547 165.966 12.9383 165.966 13.337C165.966 13.7203 165.859 14.0117 165.644 14.211C165.43 14.395 165.177 14.487 164.885 14.487C164.594 14.487 164.341 14.395 164.126 14.211C163.912 14.0117 163.804 13.7203 163.804 13.337ZM168.128 13.337C168.128 12.9383 168.228 12.6547 168.427 12.486C168.642 12.302 168.895 12.21 169.186 12.21C169.478 12.21 169.731 12.302 169.945 12.486C170.16 12.6547 170.267 12.9383 170.267 13.337C170.267 13.7203 170.16 14.0117 169.945 14.211C169.731 14.395 169.478 14.487 169.186 14.487C168.895 14.487 168.642 14.395 168.427 14.211C168.228 14.0117 168.128 13.7203 168.128 13.337ZM181.295 16.442C182.813 16.442 184.032 16.971 184.952 18.029C185.887 19.087 186.355 20.6817 186.355 22.813C186.355 24.2083 186.14 25.389 185.711 26.355C185.297 27.3057 184.706 28.0263 183.94 28.517C183.188 28.9923 182.299 29.23 181.272 29.23C180.643 29.23 180.083 29.1457 179.593 28.977C179.102 28.8083 178.68 28.5937 178.328 28.333C177.99 28.057 177.699 27.758 177.454 27.436H177.316C177.346 27.6967 177.377 28.0263 177.408 28.425C177.438 28.8237 177.454 29.1687 177.454 29.46V34.52H175.43V16.672H177.086L177.362 18.351H177.454C177.699 17.9983 177.99 17.6763 178.328 17.385C178.68 17.0937 179.094 16.8637 179.57 16.695C180.06 16.5263 180.635 16.442 181.295 16.442ZM180.927 18.144C180.099 18.144 179.432 18.305 178.926 18.627C178.42 18.9337 178.052 19.4013 177.822 20.03C177.592 20.6587 177.469 21.456 177.454 22.422V22.813C177.454 23.825 177.561 24.6837 177.776 25.389C177.99 26.0943 178.351 26.631 178.857 26.999C179.378 27.367 180.083 27.551 180.973 27.551C181.724 27.551 182.337 27.344 182.813 26.93C183.303 26.516 183.664 25.9563 183.894 25.251C184.139 24.5303 184.262 23.71 184.262 22.79C184.262 21.3793 183.986 20.2523 183.434 19.409C182.897 18.5657 182.061 18.144 180.927 18.144ZM189.58 29V16.672H191.604V21.732H194.801C195.874 21.732 196.756 21.8623 197.446 22.123C198.136 22.3837 198.65 22.7747 198.987 23.296C199.324 23.802 199.493 24.446 199.493 25.228C199.493 25.9947 199.324 26.6617 198.987 27.229C198.665 27.7963 198.151 28.2333 197.446 28.54C196.756 28.8467 195.844 29 194.709 29H189.58ZM194.525 27.367C195.399 27.367 196.112 27.2213 196.664 26.93C197.216 26.6233 197.492 26.0943 197.492 25.343C197.492 24.5917 197.239 24.0857 196.733 23.825C196.227 23.549 195.499 23.411 194.548 23.411H191.604V27.367H194.525ZM201.54 29V16.672H203.564V29H201.54Z" fill="white"/>
<g filter="url(#filter0_bd_0_493)">
<circle cx="40.5" cy="89.5" r="23.5" fill="white" fill-opacity="0.08" shape-rendering="crispEdges"/>
</g>
<path d="M51.0351 85.0345C50.9284 84.1442 50.0894 83.2905 49.2115 83.1761C43.8585 82.511 38.4454 82.511 33.0941 83.1761C32.2155 83.2902 31.3765 84.1442 31.2698 85.0345C30.8919 88.2974 30.8919 91.4611 31.2698 94.7232C31.3765 95.6135 32.2155 96.468 33.0941 96.5816C38.4454 97.2468 43.8587 97.2468 49.2115 96.5816C50.0894 96.4682 50.9284 95.6135 51.0351 94.7232C51.4131 91.4614 51.4131 88.2974 51.0351 85.0345ZM39.458 93.2682V86.4906L44.5411 89.8795L39.458 93.2682Z" fill="#456AE7"/>
<g filter="url(#filter1_bd_0_493)">
<circle cx="106.5" cy="89.5" r="23.5" fill="white" fill-opacity="0.08" shape-rendering="crispEdges"/>
</g>
<g filter="url(#filter2_bd_0_493)">
<circle cx="171.5" cy="89.5" r="23.5" fill="white" fill-opacity="0.08" shape-rendering="crispEdges"/>
</g>
<path d="M96.2567 90.7737L100.497 92.3563L102.138 97.6347C102.243 97.9727 102.657 98.0977 102.931 97.8733L105.295 95.9464C105.543 95.7446 105.895 95.7345 106.154 95.9225L110.418 99.0176C110.711 99.231 111.127 99.0701 111.201 98.7155L114.324 83.6932C114.404 83.3057 114.023 82.9825 113.654 83.1252L96.2517 89.8386C95.8223 90.0042 95.826 90.6123 96.2567 90.7737ZM101.874 91.5138L110.161 86.4097C110.31 86.3182 110.463 86.5196 110.335 86.6382L103.496 92.9958C103.256 93.2196 103.101 93.5191 103.057 93.8441L102.824 95.5707C102.793 95.8012 102.469 95.8241 102.405 95.601L101.509 92.4526C101.407 92.0934 101.556 91.7099 101.874 91.5138Z" fill="#456AE7"/>
<path d="M176.127 85.185C175.898 85.185 175.712 85.3712 175.712 85.5999C175.712 85.8287 175.898 86.0148 176.127 86.0148C176.356 86.0148 176.542 85.8287 176.542 85.5999C176.542 85.3711 176.356 85.185 176.127 85.185Z" fill="#456AE7"/>
<path d="M171.159 86.8898C169.131 86.8898 167.48 88.5399 167.48 90.5682C167.48 92.5965 169.131 94.2466 171.159 94.2466C173.187 94.2466 174.837 92.5965 174.837 90.5682C174.837 88.5399 173.187 86.8898 171.159 86.8898Z" fill="#456AE7"/>
<path d="M175.019 82.0227H167.298C164.715 82.0227 162.613 84.1245 162.613 86.708V94.4284C162.613 97.0119 164.715 99.1136 167.298 99.1136H175.019C177.602 99.1136 179.704 97.0118 179.704 94.4284V86.708C179.704 84.1245 177.602 82.0227 175.019 82.0227ZM171.159 95.2559C168.574 95.2559 166.471 93.153 166.471 90.5682C166.471 87.9833 168.574 85.8805 171.159 85.8805C173.744 85.8805 175.846 87.9834 175.846 90.5682C175.846 93.153 173.744 95.2559 171.159 95.2559ZM176.127 87.0243C175.342 87.0243 174.703 86.3854 174.703 85.6001C174.703 84.8148 175.342 84.1759 176.127 84.1759C176.912 84.1759 177.551 84.8148 177.551 85.6001C177.551 86.3854 176.912 87.0243 176.127 87.0243Z" fill="#456AE7"/>
<defs>
<filter id="filter0_bd_0_493" x="-13" y="36" width="107" height="107" filterUnits="userSpaceOnUse" color-interpolation-filters="sRGB">
<feFlood flood-opacity="0" result="BackgroundImageFix"/>
<feGaussianBlur in="BackgroundImageFix" stdDeviation="15"/>
<feComposite in2="SourceAlpha" operator="in" result="effect1_backgroundBlur_0_493"/>
<feColorMatrix in="SourceAlpha" type="matrix" values="0 0 0 0 0 0 0 0 0 0 0 0 0 0 0 0 0 0 127 0" result="hardAlpha"/>
<feOffset dy="4"/>
<feGaussianBlur stdDeviation="8.5"/>
<feComposite in2="hardAlpha" operator="out"/>
<feColorMatrix type="matrix" values="0 0 0 0 0 0 0 0 0 0 0 0 0 0 0 0 0 0 0.12 0"/>
<feBlend mode="normal" in2="effect1_backgroundBlur_0_493" result="effect2_dropShadow_0_493"/>
<feBlend mode="normal" in="SourceGraphic" in2="effect2_dropShadow_0_493" result="shape"/>
</filter>
<filter id="filter1_bd_0_493" x="53" y="36" width="107" height="107" filterUnits="userSpaceOnUse" color-interpolation-filters="sRGB">
<feFlood flood-opacity="0" result="BackgroundImageFix"/>
<feGaussianBlur in="BackgroundImageFix" stdDeviation="15"/>
<feComposite in2="SourceAlpha" operator="in" result="effect1_backgroundBlur_0_493"/>
<feColorMatrix in="SourceAlpha" type="matrix" values="0 0 0 0 0 0 0 0 0 0 0 0 0 0 0 0 0 0 127 0" result="hardAlpha"/>
<feOffset dy="4"/>
<feGaussianBlur stdDeviation="8.5"/>
<feComposite in2="hardAlpha" operator="out"/>
<feColorMatrix type="matrix" values="0 0 0 0 0 0 0 0 0 0 0 0 0 0 0 0 0 0 0.12 0"/>
<feBlend mode="normal" in2="effect1_backgroundBlur_0_493" result="effect2_dropShadow_0_493"/>
<feBlend mode="normal" in="SourceGraphic" in2="effect2_dropShadow_0_493" result="shape"/>
</filter>
<filter id="filter2_bd_0_493" x="118" y="36" width="107" height="107" filterUnits="userSpaceOnUse" color-interpolation-filters="sRGB">
<feFlood flood-opacity="0" result="BackgroundImageFix"/>
<feGaussianBlur in="BackgroundImageFix" stdDeviation="15"/>
<feComposite in2="SourceAlpha" operator="in" result="effect1_backgroundBlur_0_493"/>
<feColorMatrix in="SourceAlpha" type="matrix" values="0 0 0 0 0 0 0 0 0 0 0 0 0 0 0 0 0 0 127 0" result="hardAlpha"/>
<feOffset dy="4"/>
<feGaussianBlur stdDeviation="8.5"/>
<feComposite in2="hardAlpha" operator="out"/>
<feColorMatrix type="matrix" values="0 0 0 0 0 0 0 0 0 0 0 0 0 0 0 0 0 0 0.12 0"/>
<feBlend mode="normal" in2="effect1_backgroundBlur_0_493" result="effect2_dropShadow_0_493"/>
<feBlend mode="normal" in="SourceGraphic" in2="effect2_dropShadow_0_493" result="shape"/>
</filter>
</defs>
</svg>
