<svg width="334" height="40" viewBox="0 0 334 40" fill="none" xmlns="http://www.w3.org/2000/svg">
<rect x="43" width="33" height="40" rx="3" fill="#5B41F5"/>
<rect x="86" width="33" height="40" rx="3" fill="#F9F9F9"/>
<rect width="33" height="40" rx="3" fill="#F9F9F9"/>
<g clip-path="url(#clip0_0_877)">
<path d="M20.1034 25.8535C20.2989 25.658 20.2989 25.342 20.1034 25.1465L14.957 20.0001L20.1034 14.8537C20.2989 14.6582 20.2989 14.3422 20.1034 14.1467C19.9079 13.9513 19.5919 13.9513 19.3964 14.1467L13.8965 19.6466C13.799 19.7441 13.75 19.8721 13.75 20.0001C13.75 20.1281 13.799 20.2561 13.8965 20.3536L19.3964 25.8535C19.5919 26.049 19.9079 26.049 20.1034 25.8535Z" fill="#5B41F5"/>
</g>
<rect x="301" width="33" height="40" rx="3" fill="#F9F9F9"/>
<g clip-path="url(#clip1_0_877)">
<path d="M314.897 14.1465C314.701 14.342 314.701 14.658 314.897 14.8535L320.043 19.9999L314.897 25.1463C314.701 25.3418 314.701 25.6578 314.897 25.8533C315.092 26.0487 315.408 26.0487 315.604 25.8533L321.103 20.3534C321.201 20.2559 321.25 20.1279 321.25 19.9999C321.25 19.8719 321.201 19.7439 321.103 19.6464L315.604 14.1465C315.408 13.951 315.092 13.951 314.897 14.1465Z" fill="#5B41F5"/>
</g>
<rect x="129" width="33" height="40" rx="3" fill="#F9F9F9"/>
<rect x="172" width="33" height="40" rx="3" fill="#F9F9F9"/>
<rect x="215" width="33" height="40" rx="3" fill="#F9F9F9"/>
<path d="M59.5781 17.6094H60.7344V25.4531L62.0938 25.5938C62.1354 25.5938 62.1771 25.599 62.2188 25.6094C62.4375 25.651 62.5469 25.7812 62.5469 26H56.875V25.5938L58.9062 25.4531V18.7344L56.5938 20.1562L56.3125 19.7188L59.5781 17.6094Z" fill="white"/>
<path d="M99.3906 24.5938H102.969C103.188 24.5938 103.359 24.5833 103.484 24.5625C103.766 24.5 103.974 24.2812 104.109 23.9062L104.375 23.1562H104.719L104.703 26H98.4688V25.5938C98.4688 25.1771 98.5469 24.7969 98.7031 24.4531C98.9219 23.974 99.3958 23.5052 100.125 23.0469C100.885 22.5677 101.328 22.2812 101.453 22.1875C102.276 21.5521 102.688 20.6979 102.688 19.625C102.688 19.4167 102.667 19.2135 102.625 19.0156C102.458 18.2552 102.016 17.875 101.297 17.875C101.005 17.875 100.781 17.9479 100.625 18.0938C100.448 18.25 100.339 18.6042 100.297 19.1562C100.286 19.4062 100.271 19.5885 100.25 19.7031C100.146 20.1823 99.8438 20.4219 99.3438 20.4219C99.25 20.4219 99.1562 20.4062 99.0625 20.375C98.6875 20.25 98.5 19.9323 98.5 19.4219C98.5 18.974 98.6615 18.5885 98.9844 18.2656C99.526 17.724 100.339 17.4531 101.422 17.4531C101.953 17.4531 102.443 17.526 102.891 17.6719C103.995 18.026 104.547 18.7135 104.547 19.7344C104.547 20.3385 104.286 20.901 103.766 21.4219C103.349 21.8281 102.562 22.3281 101.406 22.9219C101.01 23.1198 100.724 23.2656 100.547 23.3594C99.776 23.7969 99.3906 24.2083 99.3906 24.5938Z" fill="black"/>
<path d="M148.172 18L144.609 21.7812C144.922 21.7083 145.26 21.6719 145.625 21.6719C146.344 21.6719 146.953 21.8281 147.453 22.1406C148.172 22.599 148.531 23.2656 148.531 24.1406C148.531 24.7969 148.323 25.3906 147.906 25.9219C147.198 26.8073 146.135 27.25 144.719 27.25C144.083 27.25 143.51 27.1562 143 26.9688C142.073 26.6146 141.609 26.0469 141.609 25.2656C141.609 25.1719 141.62 25.0781 141.641 24.9844C141.745 24.5573 142.042 24.3438 142.531 24.3438C142.771 24.3438 142.964 24.401 143.109 24.5156C143.276 24.6615 143.38 24.9948 143.422 25.5156C143.443 25.776 143.469 25.9635 143.5 26.0781C143.615 26.5885 143.964 26.8438 144.547 26.8438C145.943 26.8021 146.672 25.974 146.734 24.3594C146.734 24.026 146.698 23.7188 146.625 23.4375C146.385 22.5938 145.875 22.1719 145.094 22.1719C144.75 22.1719 144.391 22.25 144.016 22.4062L143.641 22.0938L146.375 18.9375H143.875C143.646 18.9375 143.469 18.9479 143.344 18.9688C143.031 19.0208 142.802 19.2344 142.656 19.6094L142.375 20.375H142L142.031 17.6094H148.172V18Z" fill="black"/>
<path d="M191.469 27.0469H186.594V26.625H188.344V24.6406L184.203 24.625L184.109 24.1562C184.422 23.9062 184.719 23.651 185 23.3906C186.26 22.1927 187.151 20.8385 187.672 19.3281C187.953 18.5156 188.104 18.0781 188.125 18.0156C188.333 17.6094 188.661 17.4062 189.109 17.4062C189.214 17.4062 189.307 17.4167 189.391 17.4375C189.891 17.5312 190.141 17.8281 190.141 18.3281C190.13 18.9531 189.568 19.8333 188.453 20.9688C187.87 21.5521 186.656 22.6146 184.812 24.1562L188.344 24.1719V22.3125H188.5C188.667 22.3125 188.807 22.3021 188.922 22.2812C189.224 22.2188 189.432 21.9948 189.547 21.6094L189.75 20.9531H190.094V24.1875H191.469V24.6562H190.094V26.625H191.094C191.156 26.625 191.214 26.6302 191.266 26.6406C191.401 26.6615 191.469 26.7969 191.469 27.0469Z" fill="black"/>
<path d="M227.531 25.0781C227.531 25.2448 227.49 25.401 227.406 25.5469C227.219 25.901 226.922 26.0781 226.516 26.0781C226.37 26.0781 226.224 26.0469 226.078 25.9844C225.703 25.8073 225.516 25.5052 225.516 25.0781C225.516 24.9219 225.552 24.7708 225.625 24.625C225.802 24.25 226.099 24.0625 226.516 24.0625C226.672 24.0625 226.828 24.1042 226.984 24.1875C227.349 24.375 227.531 24.6719 227.531 25.0781ZM230.578 25.0781C230.578 25.2448 230.536 25.401 230.453 25.5469C230.266 25.901 229.969 26.0781 229.562 26.0781C229.417 26.0781 229.271 26.0469 229.125 25.9844C228.75 25.8073 228.562 25.5052 228.562 25.0781C228.562 24.9219 228.599 24.7708 228.672 24.625C228.849 24.25 229.146 24.0625 229.562 24.0625C229.719 24.0625 229.875 24.1042 230.031 24.1875C230.396 24.375 230.578 24.6719 230.578 25.0781ZM233.625 25.0781C233.625 25.2448 233.583 25.401 233.5 25.5469C233.312 25.901 233.016 26.0781 232.609 26.0781C232.464 26.0781 232.318 26.0469 232.172 25.9844C231.797 25.8073 231.609 25.5052 231.609 25.0781C231.609 24.9219 231.646 24.7708 231.719 24.625C231.896 24.25 232.193 24.0625 232.609 24.0625C232.766 24.0625 232.922 24.1042 233.078 24.1875C233.443 24.375 233.625 24.6719 233.625 25.0781Z" fill="black"/>
<rect x="258" width="33" height="40" rx="3" fill="#F9F9F9"/>
<path d="M266.391 24.5938H269.969C270.188 24.5938 270.359 24.5833 270.484 24.5625C270.766 24.5 270.974 24.2812 271.109 23.9062L271.375 23.1562H271.719L271.703 26H265.469V25.5938C265.469 25.1771 265.547 24.7969 265.703 24.4531C265.922 23.974 266.396 23.5052 267.125 23.0469C267.885 22.5677 268.328 22.2812 268.453 22.1875C269.276 21.5521 269.688 20.6979 269.688 19.625C269.688 19.4167 269.667 19.2135 269.625 19.0156C269.458 18.2552 269.016 17.875 268.297 17.875C268.005 17.875 267.781 17.9479 267.625 18.0938C267.448 18.25 267.339 18.6042 267.297 19.1562C267.286 19.4062 267.271 19.5885 267.25 19.7031C267.146 20.1823 266.844 20.4219 266.344 20.4219C266.25 20.4219 266.156 20.4062 266.062 20.375C265.688 20.25 265.5 19.9323 265.5 19.4219C265.5 18.974 265.661 18.5885 265.984 18.2656C266.526 17.724 267.339 17.4531 268.422 17.4531C268.953 17.4531 269.443 17.526 269.891 17.6719C270.995 18.026 271.547 18.7135 271.547 19.7344C271.547 20.3385 271.286 20.901 270.766 21.4219C270.349 21.8281 269.562 22.3281 268.406 22.9219C268.01 23.1198 267.724 23.2656 267.547 23.3594C266.776 23.7969 266.391 24.2083 266.391 24.5938ZM276.156 17.6094H277.312V25.4531L278.672 25.5938C278.714 25.5938 278.755 25.599 278.797 25.6094C279.016 25.651 279.125 25.7812 279.125 26H273.453V25.5938L275.484 25.4531V18.7344L273.172 20.1562L272.891 19.7188L276.156 17.6094Z" fill="black"/>
<defs>
<clipPath id="clip0_0_877">
<rect width="12" height="12" fill="white" transform="translate(23 14) rotate(90)"/>
</clipPath>
<clipPath id="clip1_0_877">
<rect width="12" height="12" fill="white" transform="translate(312 26) rotate(-90)"/>
</clipPath>
</defs>
</svg>
