<svg width="271" height="134" viewBox="0 0 271 134" fill="none" xmlns="http://www.w3.org/2000/svg">
<path d="M27.3994 17.2192L27.0737 15.1079C27.0513 14.9956 27.0063 14.8983 26.939 14.8159C26.8716 14.7336 26.7855 14.6924 26.6807 14.6924H21.7842V20.6782H25.2993C25.4041 20.6782 25.494 20.6296 25.5688 20.5322C25.6512 20.4349 25.6999 20.3451 25.7148 20.2627L25.9282 18.6455H27.0737V23.8228H25.9282L25.7148 22.2168C25.6999 22.1344 25.6512 22.0446 25.5688 21.9473C25.4865 21.8499 25.3966 21.8013 25.2993 21.8013H21.7842V27.4165C21.7842 27.5288 21.8216 27.6374 21.8965 27.7422C21.9788 27.847 22.1024 27.9069 22.2671 27.9219L23.8057 28.0117V29H17.7637V28.0117L18.9766 27.9219C19.1413 27.9069 19.2611 27.847 19.3359 27.7422C19.4183 27.6374 19.4595 27.5288 19.4595 27.4165V15.1528C19.4595 15.0405 19.4183 14.932 19.3359 14.8271C19.2611 14.7223 19.1413 14.6624 18.9766 14.6475L17.5728 14.5576V13.5693H28.7583V17.2192H27.3994ZM41.168 23.4746C41.168 24.2907 41.0369 25.0544 40.7749 25.7656C40.5203 26.4694 40.1535 27.0833 39.6743 27.6074C39.2026 28.124 38.6261 28.5321 37.9448 28.8315C37.271 29.131 36.5148 29.2808 35.6763 29.2808C34.8377 29.2808 34.0815 29.1348 33.4077 28.8428C32.7339 28.5433 32.1611 28.1353 31.6895 27.6187C31.2178 27.1021 30.8547 26.4919 30.6001 25.7881C30.353 25.0768 30.2295 24.3057 30.2295 23.4746C30.2295 22.6585 30.3568 21.8949 30.6113 21.1836C30.8659 20.4723 31.2327 19.8547 31.7119 19.3306C32.1911 18.799 32.7676 18.3835 33.4414 18.084C34.1227 17.7845 34.8901 17.6348 35.7437 17.6348C36.5972 17.6348 37.3608 17.7882 38.0347 18.0952C38.7085 18.4022 39.2775 18.8215 39.7417 19.353C40.2059 19.8771 40.5578 20.4948 40.7974 21.2061C41.0444 21.9098 41.168 22.666 41.168 23.4746ZM38.7759 23.4521C38.7759 22.8232 38.7122 22.2205 38.585 21.644C38.4652 21.0675 38.278 20.5584 38.0234 20.1167C37.7689 19.675 37.4507 19.3231 37.0688 19.061C36.687 18.799 36.2378 18.668 35.7212 18.668C35.1896 18.668 34.7292 18.799 34.3398 19.061C33.9505 19.3231 33.6286 19.675 33.374 20.1167C33.127 20.5584 32.9435 21.0675 32.8237 21.644C32.7039 22.2205 32.644 22.8232 32.644 23.4521C32.644 24.0736 32.7039 24.6725 32.8237 25.249C32.951 25.8255 33.1419 26.3346 33.3965 26.7764C33.651 27.2181 33.9692 27.5737 34.3511 27.8433C34.7329 28.1053 35.1821 28.2363 35.6987 28.2363C36.2228 28.2363 36.6795 28.1053 37.0688 27.8433C37.4582 27.5812 37.7764 27.2293 38.0234 26.7876C38.278 26.3459 38.4652 25.8368 38.585 25.2603C38.7122 24.6838 38.7759 24.0811 38.7759 23.4521ZM42.5718 29V28.1016L43.7959 28.0342C43.9007 28.0342 44.0093 27.9818 44.1216 27.877C44.2414 27.7646 44.3013 27.6561 44.3013 27.5513V13.7041H42.5493V12.9404L45.4917 12.0532H46.4351V27.5513C46.4351 27.6561 46.4875 27.7646 46.5923 27.877C46.7046 27.9818 46.8132 28.0342 46.918 28.0342L48.1646 28.1016V29H42.5718ZM49.3999 29V28.1016L50.624 28.0342C50.7288 28.0342 50.8374 27.9818 50.9497 27.877C51.0695 27.7646 51.1294 27.6561 51.1294 27.5513V13.7041H49.3774V12.9404L52.3198 12.0532H53.2632V27.5513C53.2632 27.6561 53.3156 27.7646 53.4204 27.877C53.5327 27.9818 53.6413 28.0342 53.7461 28.0342L54.9927 28.1016V29H49.3999ZM67.335 23.4746C67.335 24.2907 67.2039 25.0544 66.9419 25.7656C66.6873 26.4694 66.3205 27.0833 65.8413 27.6074C65.3696 28.124 64.7931 28.5321 64.1118 28.8315C63.438 29.131 62.6818 29.2808 61.8433 29.2808C61.0047 29.2808 60.2485 29.1348 59.5747 28.8428C58.9009 28.5433 58.3281 28.1353 57.8564 27.6187C57.3848 27.1021 57.0216 26.4919 56.7671 25.7881C56.52 25.0768 56.3965 24.3057 56.3965 23.4746C56.3965 22.6585 56.5238 21.8949 56.7783 21.1836C57.0329 20.4723 57.3997 19.8547 57.8789 19.3306C58.3581 18.799 58.9346 18.3835 59.6084 18.084C60.2897 17.7845 61.0571 17.6348 61.9106 17.6348C62.7642 17.6348 63.5278 17.7882 64.2017 18.0952C64.8755 18.4022 65.4445 18.8215 65.9087 19.353C66.3729 19.8771 66.7248 20.4948 66.9644 21.2061C67.2114 21.9098 67.335 22.666 67.335 23.4746ZM64.9429 23.4521C64.9429 22.8232 64.8792 22.2205 64.752 21.644C64.6322 21.0675 64.445 20.5584 64.1904 20.1167C63.9359 19.675 63.6177 19.3231 63.2358 19.061C62.854 18.799 62.4048 18.668 61.8882 18.668C61.3566 18.668 60.8962 18.799 60.5068 19.061C60.1175 19.3231 59.7956 19.675 59.541 20.1167C59.2939 20.5584 59.1105 21.0675 58.9907 21.644C58.8709 22.2205 58.811 22.8232 58.811 23.4521C58.811 24.0736 58.8709 24.6725 58.9907 25.249C59.118 25.8255 59.3089 26.3346 59.5635 26.7764C59.818 27.2181 60.1362 27.5737 60.5181 27.8433C60.8999 28.1053 61.3491 28.2363 61.8657 28.2363C62.3898 28.2363 62.8465 28.1053 63.2358 27.8433C63.6252 27.5812 63.9434 27.2293 64.1904 26.7876C64.445 26.3459 64.6322 25.8368 64.752 25.2603C64.8792 24.6838 64.9429 24.0811 64.9429 23.4521ZM84.731 18.9487L81.5752 29H79.9468L77.229 20.3975L74.1968 29H72.5571L69.6147 18.9487L68.3457 18.814V17.9155H73.3882V18.814L72.3101 18.8813C72.2052 18.8963 72.1191 18.9375 72.0518 19.0049C71.9844 19.0723 71.9507 19.1584 71.9507 19.2632C71.9507 19.3156 71.9544 19.3568 71.9619 19.3867L73.8711 26.5405L76.8359 17.9155H78.4756L81.1372 26.5405L83.2598 19.3867C83.2673 19.3643 83.271 19.3268 83.271 19.2744C83.271 19.1771 83.241 19.091 83.1812 19.0161C83.1213 18.9338 83.0389 18.8888 82.9341 18.8813L81.8784 18.814V17.9155H85.8989V18.814L84.731 18.9487ZM105.44 29V27.686C105.245 27.8358 105.006 28.0042 104.721 28.1914C104.444 28.3786 104.141 28.5545 103.812 28.7192C103.49 28.8765 103.149 29.0075 102.79 29.1123C102.438 29.2246 102.093 29.2808 101.756 29.2808C101.262 29.2808 100.817 29.2059 100.42 29.0562C100.031 28.9139 99.6974 28.693 99.4204 28.3936C99.1509 28.0866 98.9412 27.701 98.7915 27.2368C98.6493 26.7651 98.5781 26.2036 98.5781 25.5522V19.3193H96.9722V18.5332L99.8022 17.6348H100.723V25.1143C100.723 25.5186 100.761 25.8817 100.835 26.2036C100.918 26.5256 101.045 26.7988 101.217 27.0234C101.397 27.248 101.629 27.4202 101.914 27.54C102.198 27.6523 102.542 27.7085 102.947 27.7085C103.179 27.7085 103.415 27.686 103.654 27.6411C103.894 27.5962 104.122 27.54 104.339 27.4727C104.556 27.3978 104.759 27.3229 104.946 27.248C105.14 27.1657 105.305 27.0908 105.44 27.0234V19.3193H103.823V18.5332L106.63 17.6348H107.574V27.5288C107.574 27.6711 107.622 27.7871 107.72 27.877C107.825 27.9668 107.944 28.0192 108.079 28.0342L109.09 28.1016V29H105.44ZM117.951 25.6646C117.951 26.2261 117.85 26.7314 117.647 27.1807C117.445 27.6299 117.157 28.0117 116.783 28.3262C116.408 28.6331 115.948 28.869 115.401 29.0337C114.855 29.1984 114.241 29.2808 113.56 29.2808C113.208 29.2808 112.863 29.2583 112.526 29.2134C112.197 29.1759 111.89 29.1235 111.605 29.0562C111.328 28.9963 111.081 28.9326 110.864 28.8652C110.647 28.7979 110.482 28.7417 110.37 28.6968V25.6421H111.538L111.819 27.5962C112.051 27.7459 112.335 27.8919 112.672 28.0342C113.017 28.1689 113.414 28.2363 113.863 28.2363C114.192 28.2363 114.484 28.1877 114.739 28.0903C114.993 27.9855 115.207 27.8507 115.379 27.686C115.559 27.5213 115.693 27.3341 115.783 27.1245C115.881 26.9074 115.929 26.6828 115.929 26.4507C115.929 26.1512 115.873 25.8929 115.761 25.6758C115.648 25.4512 115.484 25.2528 115.267 25.0806C115.057 24.9009 114.795 24.7324 114.48 24.5752C114.174 24.4105 113.822 24.2308 113.425 24.0361L113.122 23.8901C112.702 23.688 112.332 23.4896 112.01 23.2949C111.688 23.0928 111.415 22.8794 111.19 22.6548C110.973 22.4227 110.808 22.1719 110.696 21.9023C110.583 21.6253 110.527 21.3146 110.527 20.9702C110.527 20.4611 110.617 20.0007 110.797 19.5889C110.984 19.1771 111.254 18.8289 111.605 18.5444C111.957 18.2524 112.388 18.0278 112.897 17.8706C113.414 17.7134 114.005 17.6348 114.671 17.6348C115.008 17.6348 115.33 17.6535 115.637 17.6909C115.944 17.7284 116.225 17.7733 116.479 17.8257C116.734 17.8781 116.959 17.9342 117.153 17.9941C117.348 18.054 117.501 18.1102 117.614 18.1626V20.8804H116.412L116.232 19.2744C116.068 19.1471 115.824 19.0273 115.502 18.915C115.181 18.8027 114.84 18.7466 114.48 18.7466C113.844 18.7466 113.372 18.8926 113.065 19.1846C112.766 19.4691 112.616 19.8359 112.616 20.2852C112.616 20.5472 112.657 20.7756 112.74 20.9702C112.83 21.1649 112.972 21.3483 113.167 21.5205C113.369 21.6927 113.634 21.8687 113.964 22.0483C114.293 22.2205 114.701 22.4152 115.188 22.6323C115.585 22.812 115.952 23.0029 116.289 23.2051C116.625 23.3997 116.917 23.6206 117.165 23.8677C117.412 24.1073 117.603 24.373 117.737 24.665C117.88 24.957 117.951 25.2902 117.951 25.6646Z" fill="white"/>
<g filter="url(#filter0_bd_0_514)">
<ellipse cx="40.5" cy="90" rx="23.5" ry="23" fill="white" fill-opacity="0.08" shape-rendering="crispEdges"/>
</g>
<path d="M41.363 93.447C41.363 91.599 40.484 90.233 38.668 89.721C39.993 89.09 40.684 88.134 40.684 86.647C40.684 83.715 38.492 83 35.963 83H29V97.721H36.158C38.842 97.721 41.363 96.438 41.363 93.447ZM32.246 85.513H35.292C36.463 85.513 37.517 85.841 37.517 87.195C37.517 88.445 36.697 88.948 35.537 88.948H32.246V85.513ZM32.245 95.221V91.167H35.783C37.212 91.167 38.116 91.761 38.116 93.269C38.116 94.756 37.037 95.221 35.716 95.221H32.245Z" fill="#456AE7"/>
<path d="M47.7962 98.0001C50.3502 98.0001 52.0042 96.8531 52.8002 94.4151H50.2082C49.9292 95.3251 48.7792 95.8061 47.8872 95.8061C46.1662 95.8061 45.2622 94.8011 45.2622 93.0931H52.9752C53.2192 89.6751 51.3152 86.7621 47.7952 86.7621C44.5362 86.7621 42.3242 89.2041 42.3242 92.4031C42.3242 95.7231 44.4202 98.0001 47.7962 98.0001ZM47.7042 88.9741C49.1792 88.9741 49.9212 89.8381 50.0452 91.2511H45.2662C45.3632 89.8501 46.2962 88.9741 47.7042 88.9741Z" fill="#456AE7"/>
<path d="M44.6667 83.7729H50.6547V85.2229H44.6667V83.7729Z" fill="#456AE7"/>
<g filter="url(#filter1_bd_0_514)">
<circle cx="105" cy="90" r="23" fill="white" fill-opacity="0.08" shape-rendering="crispEdges"/>
</g>
<g filter="url(#filter2_bd_0_514)">
<ellipse cx="169.5" cy="90" rx="23.5" ry="23" fill="white" fill-opacity="0.08" shape-rendering="crispEdges"/>
</g>
<path d="M170.363 93.447C170.363 91.599 169.484 90.233 167.668 89.721C168.993 89.09 169.684 88.134 169.684 86.647C169.684 83.715 167.492 83 164.963 83H158V97.721H165.158C167.842 97.721 170.363 96.438 170.363 93.447ZM161.246 85.513H164.292C165.463 85.513 166.517 85.841 166.517 87.195C166.517 88.445 165.697 88.948 164.537 88.948H161.246V85.513ZM161.245 95.221V91.167H164.783C166.212 91.167 167.116 91.761 167.116 93.269C167.116 94.756 166.037 95.221 164.716 95.221H161.245Z" fill="#456AE7"/>
<path d="M176.796 98.0001C179.35 98.0001 181.004 96.8531 181.8 94.4151H179.208C178.929 95.3251 177.779 95.8061 176.887 95.8061C175.166 95.8061 174.262 94.8011 174.262 93.0931H181.975C182.219 89.6751 180.315 86.7621 176.795 86.7621C173.536 86.7621 171.324 89.2041 171.324 92.4031C171.324 95.7231 173.42 98.0001 176.796 98.0001ZM176.704 88.9741C178.179 88.9741 178.921 89.8381 179.045 91.2511H174.266C174.363 89.8501 175.296 88.9741 176.704 88.9741Z" fill="#456AE7"/>
<path d="M173.667 83.7729H179.655V85.2229H173.667V83.7729Z" fill="#456AE7"/>
<path d="M95.1657 91.2617L99.3658 92.8293L100.992 98.0576C101.096 98.3924 101.505 98.5162 101.777 98.294L104.118 96.3854C104.363 96.1854 104.713 96.1754 104.969 96.3616L109.192 99.4274C109.483 99.6387 109.895 99.4794 109.968 99.1281L113.061 84.2485C113.141 83.8647 112.764 83.5446 112.398 83.6859L95.1608 90.3356C94.7354 90.4996 94.7391 91.1019 95.1657 91.2617ZM100.73 91.9949L108.938 86.9392C109.086 86.8486 109.237 87.0481 109.111 87.1656L102.336 93.4628C102.098 93.6844 101.945 93.981 101.901 94.303L101.67 96.0132C101.64 96.2415 101.319 96.2642 101.256 96.0432L100.368 92.9247C100.267 92.569 100.415 92.189 100.73 91.9949Z" fill="#456AE7"/>
<g filter="url(#filter3_bd_0_514)">
<ellipse cx="230.5" cy="90" rx="23.5" ry="23" fill="white" fill-opacity="0.08" shape-rendering="crispEdges"/>
</g>
<path d="M239.111 86.0392C238.082 86.0392 237.134 85.6987 236.372 85.1241C235.499 84.4654 234.871 83.4993 234.649 82.3857C234.594 82.1106 234.565 81.8266 234.562 81.5356H231.625V89.5605L231.622 93.9561C231.622 95.1312 230.856 96.1277 229.796 96.4781C229.488 96.5798 229.155 96.628 228.809 96.609C228.367 96.5847 227.953 96.4514 227.593 96.236C226.827 95.7779 226.308 94.9469 226.294 93.9962C226.271 92.5104 227.473 91.299 228.957 91.299C229.251 91.299 229.532 91.3468 229.796 91.4337V89.2403V88.4518C229.518 88.4107 229.235 88.3892 228.949 88.3892C227.323 88.3892 225.803 89.0648 224.717 90.2818C223.896 91.2015 223.403 92.3749 223.327 93.6053C223.228 95.2217 223.819 96.7582 224.966 97.8918C225.135 98.0582 225.312 98.2127 225.497 98.3552C226.48 99.112 227.682 99.5223 228.949 99.5223C229.235 99.5223 229.518 99.5011 229.796 99.46C230.978 99.2848 232.07 98.7433 232.931 97.8918C233.989 96.8458 234.574 95.457 234.581 93.979L234.565 87.415C235.07 87.8044 235.622 88.1267 236.215 88.3769C237.136 88.7657 238.113 88.9627 239.119 88.9624V86.8298V86.0385C239.12 86.0392 239.111 86.0392 239.111 86.0392Z" fill="#456AE7"/>
<defs>
<filter id="filter0_bd_0_514" x="-13" y="37" width="107" height="106" filterUnits="userSpaceOnUse" color-interpolation-filters="sRGB">
<feFlood flood-opacity="0" result="BackgroundImageFix"/>
<feGaussianBlur in="BackgroundImageFix" stdDeviation="15"/>
<feComposite in2="SourceAlpha" operator="in" result="effect1_backgroundBlur_0_514"/>
<feColorMatrix in="SourceAlpha" type="matrix" values="0 0 0 0 0 0 0 0 0 0 0 0 0 0 0 0 0 0 127 0" result="hardAlpha"/>
<feOffset dy="4"/>
<feGaussianBlur stdDeviation="8.5"/>
<feComposite in2="hardAlpha" operator="out"/>
<feColorMatrix type="matrix" values="0 0 0 0 0 0 0 0 0 0 0 0 0 0 0 0 0 0 0.12 0"/>
<feBlend mode="normal" in2="effect1_backgroundBlur_0_514" result="effect2_dropShadow_0_514"/>
<feBlend mode="normal" in="SourceGraphic" in2="effect2_dropShadow_0_514" result="shape"/>
</filter>
<filter id="filter1_bd_0_514" x="52" y="37" width="106" height="106" filterUnits="userSpaceOnUse" color-interpolation-filters="sRGB">
<feFlood flood-opacity="0" result="BackgroundImageFix"/>
<feGaussianBlur in="BackgroundImageFix" stdDeviation="15"/>
<feComposite in2="SourceAlpha" operator="in" result="effect1_backgroundBlur_0_514"/>
<feColorMatrix in="SourceAlpha" type="matrix" values="0 0 0 0 0 0 0 0 0 0 0 0 0 0 0 0 0 0 127 0" result="hardAlpha"/>
<feOffset dy="4"/>
<feGaussianBlur stdDeviation="8.5"/>
<feComposite in2="hardAlpha" operator="out"/>
<feColorMatrix type="matrix" values="0 0 0 0 0 0 0 0 0 0 0 0 0 0 0 0 0 0 0.12 0"/>
<feBlend mode="normal" in2="effect1_backgroundBlur_0_514" result="effect2_dropShadow_0_514"/>
<feBlend mode="normal" in="SourceGraphic" in2="effect2_dropShadow_0_514" result="shape"/>
</filter>
<filter id="filter2_bd_0_514" x="116" y="37" width="107" height="106" filterUnits="userSpaceOnUse" color-interpolation-filters="sRGB">
<feFlood flood-opacity="0" result="BackgroundImageFix"/>
<feGaussianBlur in="BackgroundImageFix" stdDeviation="15"/>
<feComposite in2="SourceAlpha" operator="in" result="effect1_backgroundBlur_0_514"/>
<feColorMatrix in="SourceAlpha" type="matrix" values="0 0 0 0 0 0 0 0 0 0 0 0 0 0 0 0 0 0 127 0" result="hardAlpha"/>
<feOffset dy="4"/>
<feGaussianBlur stdDeviation="8.5"/>
<feComposite in2="hardAlpha" operator="out"/>
<feColorMatrix type="matrix" values="0 0 0 0 0 0 0 0 0 0 0 0 0 0 0 0 0 0 0.12 0"/>
<feBlend mode="normal" in2="effect1_backgroundBlur_0_514" result="effect2_dropShadow_0_514"/>
<feBlend mode="normal" in="SourceGraphic" in2="effect2_dropShadow_0_514" result="shape"/>
</filter>
<filter id="filter3_bd_0_514" x="177" y="37" width="107" height="106" filterUnits="userSpaceOnUse" color-interpolation-filters="sRGB">
<feFlood flood-opacity="0" result="BackgroundImageFix"/>
<feGaussianBlur in="BackgroundImageFix" stdDeviation="15"/>
<feComposite in2="SourceAlpha" operator="in" result="effect1_backgroundBlur_0_514"/>
<feColorMatrix in="SourceAlpha" type="matrix" values="0 0 0 0 0 0 0 0 0 0 0 0 0 0 0 0 0 0 127 0" result="hardAlpha"/>
<feOffset dy="4"/>
<feGaussianBlur stdDeviation="8.5"/>
<feComposite in2="hardAlpha" operator="out"/>
<feColorMatrix type="matrix" values="0 0 0 0 0 0 0 0 0 0 0 0 0 0 0 0 0 0 0.12 0"/>
<feBlend mode="normal" in2="effect1_backgroundBlur_0_514" result="effect2_dropShadow_0_514"/>
<feBlend mode="normal" in="SourceGraphic" in2="effect2_dropShadow_0_514" result="shape"/>
</filter>
</defs>
</svg>
